<svg id="Ebene_1" data-name="Ebene 1" xmlns="http://www.w3.org/2000/svg" viewBox="0 0 15.47 15.47"><!-- Author: Roland Roßkopf --><defs><style>.cls-1{fill:#fff;}</style></defs><path class="cls-1" d="M192.22,227.25a.42.42,0,0,1-.31-.13.45.45,0,0,1,0-.64l5.58-5.58a.45.45,0,0,1,.64,0,.45.45,0,0,1,0,.63l-5.59,5.59A.44.44,0,0,1,192.22,227.25Z" transform="translate(-183.3 -220.3)"/><path class="cls-1" d="M197.82,224.45a.47.47,0,0,1-.34-.54l.19-2.55-2.58.14a.47.47,0,0,1-.53-.34.43.43,0,0,1,.34-.53l3.26-.3a.48.48,0,0,1,.42.12.54.54,0,0,1,.12.42l-.35,3.23a.34.34,0,0,1-.12.22A.44.44,0,0,1,197.82,224.45Z" transform="translate(-183.3 -220.3)"/><path class="cls-1" d="M197.84,227.07v4.09a3.68,3.68,0,0,1-3.68,3.68h-6.25a3.68,3.68,0,0,1-3.68-3.68v-6.24a3.68,3.68,0,0,1,3.68-3.68h4.22v-.94h-4.22a4.62,4.62,0,0,0-4.61,4.62v6.24a4.62,4.62,0,0,0,4.61,4.62h6.25a4.62,4.62,0,0,0,4.61-4.62v-4.09Z" transform="translate(-183.3 -220.3)"/></svg>